<svg xmlns="http://www.w3.org/2000/svg" width="21" height="21" viewBox="0 0 21 21">
  <metadata><?xpacket begin="﻿" id="W5M0MpCehiHzreSzNTczkc9d"?>
<x:xmpmeta xmlns:x="adobe:ns:meta/" x:xmptk="Adobe XMP Core 5.6-c142 79.160924, 2017/07/13-01:06:39        ">
   <rdf:RDF xmlns:rdf="http://www.w3.org/1999/02/22-rdf-syntax-ns#">
      <rdf:Description rdf:about=""/>
   </rdf:RDF>
</x:xmpmeta>
                                                                                                    
                                                                                                    
                                                                                                    
                                                                                                    
                                                                                                    
                                                                                                    
                                                                                                    
                                                                                                    
                                                                                                    
                                                                                                    
                                                                                                    
                                                                                                    
                                                                                                    
                                                                                                    
                                                                                                    
                                                                                                    
                                                                                                    
                                                                                                    
                                                                                                    
                                                                                                    
                           
<?xpacket end="w"?></metadata>
<defs>
    <style>
      .cls-1 {
        fill: #323232;
        fill-rule: evenodd;
      }
    </style>
  </defs>
  <path id="Forma_1" data-name="Forma 1" class="cls-1" d="M1041.69,68h15.62a2.629,2.629,0,0,1,2.69,2.7V86.3A2.629,2.629,0,0,1,1057.31,89h-15.62A2.629,2.629,0,0,1,1039,86.3V70.693a2.629,2.629,0,0,1,2.69-2.7h0Zm12.61,2.334a0.952,0.952,0,0,0-.95.945V73.54a0.951,0.951,0,0,0,.95.945h2.37a0.951,0.951,0,0,0,.95-0.945V71.277a0.952,0.952,0,0,0-.95-0.945h-2.37Zm3.33,6.547h-1.85a6.311,6.311,0,0,1,.27,1.8,6.533,6.533,0,0,1-13.06,0,6.311,6.311,0,0,1,.27-1.8h-1.93v8.872a0.842,0.842,0,0,0,.84.835h14.62a0.841,0.841,0,0,0,.84-0.835V76.879h0Zm-8.11-2.512a4.089,4.089,0,1,0,4.22,4.087A4.155,4.155,0,0,0,1049.52,74.367Z" transform="translate(-1039 -68)"/>
</svg>
