<svg xmlns="http://www.w3.org/2000/svg" width="31" height="17" viewBox="0 0 31 17">
  <metadata><?xpacket begin="﻿" id="W5M0MpCehiHzreSzNTczkc9d"?>
<x:xmpmeta xmlns:x="adobe:ns:meta/" x:xmptk="Adobe XMP Core 5.6-c142 79.160924, 2017/07/13-01:06:39        ">
   <rdf:RDF xmlns:rdf="http://www.w3.org/1999/02/22-rdf-syntax-ns#">
      <rdf:Description rdf:about=""/>
   </rdf:RDF>
</x:xmpmeta>
                                                                                                    
                                                                                                    
                                                                                                    
                                                                                                    
                                                                                                    
                                                                                                    
                                                                                                    
                                                                                                    
                                                                                                    
                                                                                                    
                                                                                                    
                                                                                                    
                                                                                                    
                                                                                                    
                                                                                                    
                                                                                                    
                                                                                                    
                                                                                                    
                                                                                                    
                                                                                                    
                           
<?xpacket end="w"?></metadata>
<defs>
    <style>
      .cls-1 {
        fill: #323232;
        fill-rule: evenodd;
      }
    </style>
  </defs>
  <path id="Forma_1" data-name="Forma 1" class="cls-1" d="M945.834,85.354q-0.057-.116-0.1-0.194a15.635,15.635,0,0,0-3.083-3.429l-0.032-.031-0.016-.015-0.016-.016h-0.016a18.1,18.1,0,0,1-1.307-1.272,1.161,1.161,0,0,1-.227-1.258,11.7,11.7,0,0,1,1.453-2.033q0.662-.823,1.049-1.319,2.791-3.569,2.421-4.563l-0.1-.154a0.945,0.945,0,0,0-.5-0.256,2.629,2.629,0,0,0-1.033-.039l-4.648.031a0.616,0.616,0,0,0-.322.008l-0.21.047-0.081.038L939,70.946a0.707,0.707,0,0,0-.178.163,1.064,1.064,0,0,0-.161.272,24.928,24.928,0,0,1-1.727,3.492q-0.6.961-1.1,1.667A8.084,8.084,0,0,1,935,77.58a5.828,5.828,0,0,1-.614.535,0.6,0.6,0,0,1-.419.171c-0.1-.021-0.188-0.042-0.275-0.062a1.046,1.046,0,0,1-.363-0.38,1.64,1.64,0,0,1-.185-0.605,6.056,6.056,0,0,1-.057-0.629c0-.176,0-0.424.008-0.745s0.016-.538.016-0.651c0-.393.008-0.821,0.024-1.28s0.03-.826.041-1.1,0.016-.553.016-0.854a3.4,3.4,0,0,0-.057-0.705,2.362,2.362,0,0,0-.169-0.5,0.847,0.847,0,0,0-.33-0.372,1.945,1.945,0,0,0-.541-0.209,11.131,11.131,0,0,0-2.179-.2,10.993,10.993,0,0,0-3.857.372,2.156,2.156,0,0,0-.613.466q-0.291.342-.081,0.372a2.009,2.009,0,0,1,1.372.668l0.1,0.186a2.863,2.863,0,0,1,.226.714,6.923,6.923,0,0,1,.146,1.133,11.764,11.764,0,0,1,0,1.939q-0.081.808-.154,1.257a2.416,2.416,0,0,1-.218.729,3.007,3.007,0,0,1-.193.342,0.292,0.292,0,0,1-.081.078,1.257,1.257,0,0,1-.436.078,1.041,1.041,0,0,1-.548-0.218,3.762,3.762,0,0,1-.67-0.6,7.993,7.993,0,0,1-.783-1.063q-0.435-.684-0.9-1.614l-0.258-.451q-0.241-.434-0.661-1.264t-0.743-1.606a1.03,1.03,0,0,0-.387-0.5l-0.081-.047a1.12,1.12,0,0,0-.258-0.132,1.792,1.792,0,0,0-.371-0.1l-4.422.031a1.148,1.148,0,0,0-.92.295l-0.065.093a0.489,0.489,0,0,0-.048.248,1.187,1.187,0,0,0,.1.419q0.967,2.188,2.106,4.221t1.977,3.274q0.838,1.242,1.71,2.343t1.154,1.413c0.188,0.207.336,0.361,0.444,0.465l0.4,0.373a9.629,9.629,0,0,0,1.138.891,19.442,19.442,0,0,0,1.662,1.024,9.235,9.235,0,0,0,2.123.823,7.626,7.626,0,0,0,2.356.256h1.856a1.309,1.309,0,0,0,.855-0.342l0.065-.077a1.037,1.037,0,0,0,.121-0.287,1.544,1.544,0,0,0,.056-0.426,4.9,4.9,0,0,1,.105-1.2,3.07,3.07,0,0,1,.274-0.807,2.011,2.011,0,0,1,.347-0.458,1.358,1.358,0,0,1,.275-0.225,0.9,0.9,0,0,1,.129-0.055,1.05,1.05,0,0,1,.912.24,5.245,5.245,0,0,1,.984.9q0.461,0.536,1.106,1.2a7.488,7.488,0,0,0,1.129.992l0.323,0.187a4.013,4.013,0,0,0,.84.341,1.867,1.867,0,0,0,.9.077l4.131-.062a1.931,1.931,0,0,0,.953-0.194,0.778,0.778,0,0,0,.4-0.427,1.148,1.148,0,0,0,.008-0.528A1.906,1.906,0,0,0,945.834,85.354Z" transform="translate(-915 -70)"/>
</svg>
