<svg xmlns="http://www.w3.org/2000/svg" width="28" height="19" viewBox="0 0 28 19">
  <metadata><?xpacket begin="﻿" id="W5M0MpCehiHzreSzNTczkc9d"?>
<x:xmpmeta xmlns:x="adobe:ns:meta/" x:xmptk="Adobe XMP Core 5.6-c142 79.160924, 2017/07/13-01:06:39        ">
   <rdf:RDF xmlns:rdf="http://www.w3.org/1999/02/22-rdf-syntax-ns#">
      <rdf:Description rdf:about=""/>
   </rdf:RDF>
</x:xmpmeta>
                                                                                                    
                                                                                                    
                                                                                                    
                                                                                                    
                                                                                                    
                                                                                                    
                                                                                                    
                                                                                                    
                                                                                                    
                                                                                                    
                                                                                                    
                                                                                                    
                                                                                                    
                                                                                                    
                                                                                                    
                                                                                                    
                                                                                                    
                                                                                                    
                                                                                                    
                                                                                                    
                           
<?xpacket end="w"?></metadata>
<defs>
    <style>
      .cls-1 {
        fill: #323232;
        fill-rule: evenodd;
      }
    </style>
  </defs>
  <path id="Forma_1" data-name="Forma 1" class="cls-1" d="M1003.81,70.83c-0.76-1.334-1.58-1.579-3.26-1.672C998.871,69.046,994.656,69,991,69s-7.876.047-9.551,0.157c-1.675.095-2.5,0.339-3.267,1.674C977.4,72.162,977,74.455,977,78.494v0.014c0,4.021.4,6.332,1.185,7.65,0.766,1.333,1.59,1.575,3.265,1.688,1.677,0.1,5.894.153,9.553,0.153s7.868-.056,9.547-0.151c1.68-.113,2.5-0.354,3.26-1.688,0.79-1.318,1.19-3.629,1.19-7.65V78.5C1005,74.455,1004.6,72.162,1003.81,70.83ZM987.5,83.682V73.317l8.75,5.182Z" transform="translate(-977 -69)"/>
</svg>
